<svg version="1.1" id="Layer_1" xmlns="http://www.w3.org/2000/svg" xmlns:xlink="http://www.w3.org/1999/xlink" x="0px" y="0px"
	 width="100%" viewBox="0 0 3840 2160" enable-background="new 0 0 3840 2160" xml:space="preserve" transparant="true">
<path fill="#FFFFFF00" opacity="0.000000" stroke="none" stroke-opacity="0.000000"
	d="
M2500.000000,2162.000000 
	C1666.666870,2162.000000 834.333618,2162.000000 2.000335,2162.000000 
	C2.000223,1442.000244 2.000223,722.000549 2.000112,2.000417 
	C4.333055,2.000000 6.666111,2.000000 8.999166,2.000000 
	C1286.665649,2.000000 2564.332031,2.000000 3841.999023,2.000000 
	C3841.999268,721.999329 3841.999268,1441.998657 3841.999512,2161.999023 
	C3395.000000,2162.000000 2948.000000,2162.000000 2500.000000,2162.000000 
M2006.780151,96.896553 
	C1994.548340,96.587189 1982.316528,96.014412 1970.084839,96.022636 
	C1943.625977,96.040436 1917.167480,96.355949 1888.752319,96.383400 
	C1807.787109,96.014915 1726.960083,99.514122 1646.144409,104.158035 
	C1620.545776,105.628998 1598.093872,113.694252 1577.581421,128.392410 
	C1572.708984,131.883728 1567.807129,135.338470 1563.025391,138.951050 
	C1538.390869,157.562332 1515.085327,178.173218 1485.242920,189.508820 
	C1485.242920,218.926086 1485.243042,247.868668 1485.242920,276.811249 
	C1485.242920,305.789917 1485.242554,334.768585 1485.242554,363.747253 
	C1485.242432,392.725922 1485.242432,421.704559 1485.242432,450.683228 
	C1485.242432,479.661896 1485.242432,508.640533 1485.242432,537.619202 
	C1485.242432,566.597900 1485.262207,595.576538 1485.237061,624.555237 
	C1485.212036,653.408569 1485.353271,682.265686 1485.138550,711.220032 
	C1481.708862,711.440002 1479.731812,711.683777 1477.755981,711.675903 
	C1449.118408,711.561584 1420.480957,711.413513 1391.841919,709.510986 
	C1391.841919,557.283325 1391.841919,405.055634 1391.841919,251.214401 
	C1379.774780,257.416138 1368.953247,262.977692 1357.782837,266.664642 
	C1357.633301,259.850098 1357.483887,253.035522 1357.295654,244.450211 
	C1234.217163,308.312469 1126.683960,389.556152 1033.243408,489.520966 
	C939.956299,589.321655 866.185608,701.943726 811.629272,827.148804 
	C757.007874,952.503113 725.316589,1083.545654 715.759338,1220.711670 
	C674.855713,1220.711670 635.015686,1220.711670 594.321045,1220.711670 
	C594.321045,1225.224976 594.321045,1228.829102 594.321045,1232.433350 
	C594.321045,1377.420532 594.317810,1522.407593 594.340088,1667.394775 
	C594.340698,1671.048706 594.623108,1674.702759 594.432129,1680.156982 
	C594.432129,1703.010742 594.432129,1725.864502 594.432129,1749.449585 
	C599.608276,1749.449585 603.551514,1749.449463 607.494812,1749.449463 
	C735.486084,1749.449463 863.477417,1749.410767 991.468628,1749.499268 
	C1007.313416,1749.510254 1002.865051,1747.036499 1010.984497,1760.085205 
	C1072.936157,1859.647583 1134.790771,1959.270386 1196.682251,2058.870117 
	C1198.603882,2061.962646 1200.598633,2065.009521 1202.541870,2068.050293 
	C1707.169067,2068.050293 2211.416016,2068.050293 2715.960693,2068.050293 
	C2717.981689,2064.927734 2720.008057,2061.905029 2721.927490,2058.815918 
	C2783.990723,1958.930786 2846.119385,1859.086304 2907.935059,1759.047852 
	C2912.287109,1752.004395 2916.714844,1749.204468 2925.209229,1749.231323 
	C3030.534180,1749.565186 3135.860840,1749.449463 3241.187012,1749.449463 
	C3245.049805,1749.449463 3248.912842,1749.449463 3252.856934,1749.449463 
	C3252.856934,1589.227905 3252.856934,1430.415283 3252.856934,1270.369873 
	C3234.848145,1270.369873 3217.395020,1270.369873 3199.876465,1270.369873 
	C3199.159424,1264.547363 3198.475586,1259.935181 3198.037598,1255.299561 
	C3190.743164,1178.099365 3175.875732,1102.409668 3152.881592,1028.333130 
	C3106.981934,880.465942 3033.657227,747.296387 2937.162354,626.632996 
	C2863.078613,533.994080 2778.193359,452.456604 2683.148682,381.520813 
	C2622.704590,336.408630 2559.114502,296.240662 2492.302734,261.209351 
	C2489.238525,259.602844 2486.033936,258.264435 2481.660156,256.225677 
	C2481.660156,269.703522 2481.660156,281.349426 2480.286377,292.510590 
	C2454.354736,278.070526 2428.961426,262.607269 2400.830322,249.236053 
	C2400.830322,272.999512 2400.830322,294.933105 2400.830322,316.866699 
	C2400.830322,338.854034 2400.830322,360.841400 2400.830322,382.828735 
	C2400.830322,404.816071 2400.830322,426.803406 2400.830322,448.790741 
	C2400.830322,470.444946 2400.830322,492.099152 2400.830322,513.753357 
	C2400.830322,535.740723 2400.830322,557.728027 2400.830322,579.715393 
	C2400.830322,601.702759 2400.978516,623.691345 2400.788574,645.677063 
	C2400.599854,667.463928 2401.609619,689.289612 2400.197754,711.269897 
	C2373.462891,711.269897 2347.864746,711.269897 2322.265137,709.507751 
	C2322.265137,539.098694 2322.265137,368.689575 2322.265137,198.283478 
	C2299.172363,188.862137 2281.016113,173.749023 2262.511475,158.996384 
	C2245.616211,145.527023 2228.348145,132.455780 2210.569092,120.187317 
	C2196.974121,110.806152 2181.262207,105.615425 2164.734131,104.618027 
	C2129.180420,102.472534 2093.586426,100.998154 2056.567139,98.486397 
	C2040.479858,98.184624 2024.392700,97.882851 2006.780151,96.896553 
z"/>
<path fill="#FB8C00" opacity="1.000000" stroke="none" 
	d="
M594.774170,1678.356689 
	C594.623108,1674.702759 594.340698,1671.048706 594.340088,1667.394775 
	C594.317810,1522.407593 594.321045,1377.420532 594.321045,1232.433350 
	C594.321045,1228.829102 594.321045,1225.224976 594.321045,1220.711670 
	C635.015686,1220.711670 674.855713,1220.711670 715.759338,1220.711670 
	C725.316589,1083.545654 757.007874,952.503113 811.629272,827.148804 
	C866.185608,701.943726 939.956299,589.321655 1033.243408,489.520966 
	C1126.683960,389.556152 1234.217163,308.312469 1357.295654,244.450211 
	C1357.483887,253.035522 1357.633301,259.850098 1357.844971,268.499115 
	C1357.830078,271.329559 1357.685425,272.325562 1357.685303,273.321533 
	C1357.668457,416.982635 1357.658936,560.643738 1357.684937,704.304871 
	C1357.685303,706.516052 1358.128784,708.727173 1358.401367,711.273621 
	C1369.998901,711.273621 1380.921143,711.273621 1391.843506,711.273560 
	C1420.480957,711.413513 1449.118408,711.561584 1477.755981,711.675903 
	C1479.731812,711.683777 1481.708862,711.440002 1485.138550,711.220032 
	C1485.353271,682.265686 1485.212036,653.408569 1485.237061,624.555237 
	C1485.262207,595.576538 1485.242432,566.597900 1485.242432,537.619202 
	C1485.242432,508.640533 1485.242432,479.661896 1485.242432,450.683228 
	C1485.242432,421.704559 1485.242432,392.725922 1485.242554,363.747253 
	C1485.242554,334.768585 1485.242920,305.789917 1485.242920,276.811249 
	C1485.243042,247.868668 1485.242920,218.926086 1485.242920,189.508820 
	C1515.085327,178.173218 1538.390869,157.562332 1563.025391,138.951050 
	C1567.807129,135.338470 1572.708984,131.883728 1577.581421,128.392410 
	C1598.093872,113.694252 1620.545776,105.628998 1646.144409,104.158035 
	C1726.960083,99.514122 1807.787109,96.014915 1890.342773,96.863037 
	C1915.175903,97.601479 1938.419312,97.819801 1961.661133,98.139580 
	C1970.592651,98.262466 1979.521118,98.616501 1989.323730,99.088455 
	C2012.772583,100.149605 2035.348877,100.987511 2058.809570,101.929062 
	C2068.990967,102.654160 2078.282715,103.707870 2087.584961,103.808815 
	C2108.158691,104.032051 2127.001465,109.820328 2144.102539,120.971634 
	C2154.120117,127.504013 2163.760742,134.655670 2173.255859,141.939362 
	C2189.621094,154.493088 2205.477783,167.723236 2222.076416,179.952072 
	C2230.005127,185.793274 2239.146240,189.989151 2248.634277,195.445724 
	C2248.634277,366.968811 2248.634277,538.937622 2248.634277,711.269897 
	C2273.802246,711.269897 2298.034424,711.269897 2322.266357,711.269897 
	C2347.864746,711.269897 2373.462891,711.269897 2400.197754,711.269897 
	C2401.609619,689.289612 2400.599854,667.463928 2400.788574,645.677063 
	C2400.978516,623.691345 2400.830322,601.702759 2400.830322,579.715393 
	C2400.830322,557.728027 2400.830322,535.740723 2400.830322,513.753357 
	C2400.830322,492.099152 2400.830322,470.444946 2400.830322,448.790741 
	C2400.830322,426.803406 2400.830322,404.816071 2400.830322,382.828735 
	C2400.830322,360.841400 2400.830322,338.854034 2400.830322,316.866699 
	C2400.830322,294.933105 2400.830322,272.999512 2400.830322,249.236053 
	C2428.961426,262.607269 2454.354736,278.070526 2481.432617,293.179260 
	C2485.603027,295.899445 2488.554199,298.069244 2491.661865,299.985626 
	C2630.974609,385.896271 2751.355225,492.932343 2851.480957,622.543518 
	C2913.109131,702.320740 2964.226807,788.337891 3003.807617,881.085571 
	C3045.929932,979.789612 3073.418701,1082.378540 3084.519531,1189.238525 
	C3085.574951,1199.397949 3086.942139,1209.525146 3088.285156,1220.668091 
	C3105.614746,1220.668091 3122.100830,1220.668091 3138.963135,1220.668091 
	C3138.963135,1373.621216 3138.963135,1525.438599 3138.963135,1678.321045 
	C3134.499512,1678.321045 3130.588867,1678.321045 3126.678223,1678.321045 
	C3026.350830,1678.321045 2926.023193,1678.421021 2825.696533,1678.130493 
	C2817.704834,1678.107422 2813.246826,1680.588867 2809.069336,1687.347534 
	C2753.179443,1777.766479 2696.996826,1868.004517 2640.881104,1958.283813 
	C2635.620117,1966.747803 2630.318604,1975.186646 2625.017090,1983.666992 
	C2141.997559,1983.666992 1659.422485,1983.666992 1176.547607,1983.666992 
	C1174.712280,1980.768311 1172.918823,1977.980347 1171.168945,1975.165283 
	C1111.353882,1878.946167 1051.507690,1782.746338 991.822693,1686.446655 
	C988.374146,1680.882568 984.899902,1678.110962 977.749634,1678.126587 
	C850.091614,1678.406616 722.432739,1678.344971 594.774170,1678.356689 
M1819.217041,1194.993408 
	C1866.523071,1195.046509 1913.829224,1195.114502 1961.135254,1195.105103 
	C1963.318237,1195.104614 1965.501099,1194.409546 1968.223267,1193.946289 
	C1968.223267,1189.804443 1968.223267,1186.170288 1968.223267,1182.536133 
	C1968.223267,883.699280 1968.225098,584.862488 1968.204590,286.025635 
	C1968.204346,282.036713 1967.922363,278.047791 1967.916870,272.471893 
	C1965.779785,267.788483 1961.205322,268.854828 1957.618286,268.634277 
	C1938.995850,267.489227 1920.343750,265.893066 1901.712769,266.020142 
	C1865.077759,266.270081 1828.446899,267.448761 1791.821045,268.483826 
	C1782.963379,268.734161 1774.132202,269.921692 1765.114746,270.693146 
	C1765.114746,579.079224 1765.114746,886.527771 1765.114746,1195.333252 
	C1782.916260,1194.857788 1800.097168,1196.178955 1819.217041,1194.993408 
z"/>
<path fill="#1C1A18" opacity="1.000000" stroke="none" 
	d="
M594.603149,1679.256836 
	C722.432739,1678.344971 850.091614,1678.406616 977.749634,1678.126587 
	C984.899902,1678.110962 988.374146,1680.882568 991.822693,1686.446655 
	C1051.507690,1782.746338 1111.353882,1878.946167 1171.168945,1975.165283 
	C1172.918823,1977.980347 1174.712280,1980.768311 1176.547607,1983.666992 
	C1659.422485,1983.666992 2141.997559,1983.666992 2625.017090,1983.666992 
	C2630.318604,1975.186646 2635.620117,1966.747803 2640.881104,1958.283813 
	C2696.996826,1868.004517 2753.179443,1777.766479 2809.069336,1687.347534 
	C2813.246826,1680.588867 2817.704834,1678.107422 2825.696533,1678.130493 
	C2926.023193,1678.421021 3026.350830,1678.321045 3126.678223,1678.321045 
	C3130.588867,1678.321045 3134.499512,1678.321045 3138.963135,1678.321045 
	C3138.963135,1525.438599 3138.963135,1373.621216 3138.963135,1220.668091 
	C3122.100830,1220.668091 3105.614746,1220.668091 3088.285156,1220.668091 
	C3086.942139,1209.525146 3085.574951,1199.397949 3084.519531,1189.238525 
	C3073.418701,1082.378540 3045.929932,979.789612 3003.807617,881.085571 
	C2964.226807,788.337891 2913.109131,702.320740 2851.480957,622.543518 
	C2751.355225,492.932343 2630.974609,385.896271 2491.661865,299.985626 
	C2488.554199,298.069244 2485.603027,295.899445 2482.119629,293.421631 
	C2481.660156,281.349426 2481.660156,269.703522 2481.660156,256.225677 
	C2486.033936,258.264435 2489.238525,259.602844 2492.302734,261.209351 
	C2559.114502,296.240662 2622.704590,336.408630 2683.148682,381.520813 
	C2778.193359,452.456604 2863.078613,533.994080 2937.162354,626.632996 
	C3033.657227,747.296387 3106.981934,880.465942 3152.881592,1028.333130 
	C3175.875732,1102.409668 3190.743164,1178.099365 3198.037598,1255.299561 
	C3198.475586,1259.935181 3199.159424,1264.547363 3199.876465,1270.369873 
	C3217.395020,1270.369873 3234.848145,1270.369873 3252.856934,1270.369873 
	C3252.856934,1430.415283 3252.856934,1589.227905 3252.856934,1749.449463 
	C3248.912842,1749.449463 3245.049805,1749.449463 3241.187012,1749.449463 
	C3135.860840,1749.449463 3030.534180,1749.565186 2925.209229,1749.231323 
	C2916.714844,1749.204468 2912.287109,1752.004395 2907.935059,1759.047852 
	C2846.119385,1859.086304 2783.990723,1958.930786 2721.927490,2058.815918 
	C2720.008057,2061.905029 2717.981689,2064.927734 2715.960693,2068.050293 
	C2211.416016,2068.050293 1707.169067,2068.050293 1202.541870,2068.050293 
	C1200.598633,2065.009521 1198.603882,2061.962646 1196.682251,2058.870117 
	C1134.790771,1959.270386 1072.936157,1859.647583 1010.984497,1760.085205 
	C1002.865051,1747.036499 1007.313416,1749.510254 991.468628,1749.499268 
	C863.477417,1749.410767 735.486084,1749.449463 607.494812,1749.449463 
	C603.551514,1749.449463 599.608276,1749.449585 594.432129,1749.449585 
	C594.432129,1725.864502 594.432129,1703.010742 594.603149,1679.256836 
z"/>
<path fill="#1C1B18" opacity="1.000000" stroke="none" 
	d="
M2322.265625,710.388794 
	C2298.034424,711.269897 2273.802246,711.269897 2248.634277,711.269897 
	C2248.634277,538.937622 2248.634277,366.968811 2248.634277,195.445724 
	C2239.146240,189.989151 2230.005127,185.793274 2222.076416,179.952072 
	C2205.477783,167.723236 2189.621094,154.493088 2173.255859,141.939362 
	C2163.760742,134.655670 2154.120117,127.504013 2144.102539,120.971634 
	C2127.001465,109.820328 2108.158691,104.032051 2087.584961,103.808815 
	C2078.282715,103.707870 2068.990967,102.654160 2058.881836,101.286613 
	C2058.049072,100.110039 2058.029053,99.679558 2058.008789,99.249069 
	C2093.586426,100.998154 2129.180420,102.472534 2164.734131,104.618027 
	C2181.262207,105.615425 2196.974121,110.806152 2210.569092,120.187317 
	C2228.348145,132.455780 2245.616211,145.527023 2262.511475,158.996384 
	C2281.016113,173.749023 2299.172363,188.862137 2322.265137,198.283478 
	C2322.265137,368.689575 2322.265137,539.098694 2322.265625,710.388794 
z"/>
<path fill="#1E1D1A" opacity="1.000000" stroke="none" 
	d="
M1391.842773,710.392334 
	C1380.921143,711.273621 1369.998901,711.273621 1358.401367,711.273621 
	C1358.128784,708.727173 1357.685303,706.516052 1357.684937,704.304871 
	C1357.658936,560.643738 1357.668457,416.982635 1357.685303,273.321533 
	C1357.685425,272.325562 1357.830078,271.329559 1358.019531,269.436401 
	C1368.953247,262.977692 1379.774780,257.416138 1391.841919,251.214401 
	C1391.841919,405.055634 1391.841919,557.283325 1391.842773,710.392334 
z"/>
<path fill="#A78D6B" opacity="1.000000" stroke="none" 
	d="
M1988.450928,98.865219 
	C1979.521118,98.616501 1970.592651,98.262466 1961.661133,98.139580 
	C1938.419312,97.819801 1915.175903,97.601479 1891.321045,96.946182 
	C1917.167480,96.355949 1943.625977,96.040436 1970.084839,96.022636 
	C1982.316528,96.014412 1994.548340,96.587189 2006.671021,97.462387 
	C2000.524902,98.307220 1994.487915,98.586220 1988.450928,98.865219 
z"/>
<path fill="#624C31" opacity="1.000000" stroke="none" 
	d="
M1989.323730,99.088455 
	C1994.487915,98.586220 2000.524902,98.307220 2007.433594,97.804657 
	C2024.392700,97.882851 2040.479858,98.184624 2057.288086,98.867737 
	C2058.029053,99.679558 2058.049072,100.110039 2057.997070,101.182968 
	C2035.348877,100.987511 2012.772583,100.149605 1989.323730,99.088455 
z"/>
<path fill="#FFFFFE" opacity="0.000000" stroke="none" stroke-opacity="0.000000"
	d="
M1967.771851,274.058868 
	C1967.922363,278.047791 1968.204346,282.036713 1968.204590,286.025635 
	C1968.225098,584.862488 1968.223267,883.699280 1968.223267,1182.536133 
	C1968.223267,1186.170288 1968.223267,1189.804443 1968.223267,1193.946289 
	C1965.501099,1194.409546 1963.318237,1195.104614 1961.135254,1195.105103 
	C1913.829224,1195.114502 1866.523071,1195.046509 1818.256592,1193.957275 
	C1817.296143,888.340820 1817.296143,583.760620 1817.296143,278.767120 
	C1867.976074,274.495148 1917.801636,272.165741 1967.771851,274.058868 
z"/>
<path fill="#221F1A" opacity="1.000000" stroke="none" 
	d="
M1967.844360,273.265381 
	C1917.801636,272.165741 1867.976074,274.495148 1817.296143,278.767120 
	C1817.296143,583.760620 1817.296143,888.340820 1817.303467,1193.732178 
	C1800.097168,1196.178955 1782.916260,1194.857788 1765.114746,1195.333252 
	C1765.114746,886.527771 1765.114746,579.079224 1765.114746,270.693146 
	C1774.132202,269.921692 1782.963379,268.734161 1791.821045,268.483826 
	C1828.446899,267.448761 1865.077759,266.270081 1901.712769,266.020142 
	C1920.343750,265.893066 1938.995850,267.489227 1957.618286,268.634277 
	C1961.205322,268.854828 1965.779785,267.788483 1967.844360,273.265381 
z"/>
</svg>